<svg xml:space="preserve" style="enable-background:new 0 0 1024 1024;" viewBox="0 0 1024 1024" y="0px" x="0px" xmlns:xlink="http://www.w3.org/1999/xlink" xmlns="http://www.w3.org/2000/svg" id="图层_1" version="1.1">
<style type="text/css">
	.st0{fill:#F4B4B1;}
	.st1{fill:#3D5890;}
	.st2{fill:#304E82;}
	.st3{fill:#E08476;}
	.st4{fill:#122546;}
</style>
<path d="M550,670.8h-72.9c-46.4,0-84.1,49-84.1,109.3v64.6c78.5,24.6,162.7,24.7,241.2,0.3v-64.9
	C634.2,719.8,596.4,670.8,550,670.8L550,670.8z" class="st0"></path>
<path d="M425.3,203.3c0-28.3,7.2-51.3,34-51.3h105.1c26.9,0,36.2,23,36.2,51.3v10.1h35.6v-77.1
	c0-50.2-39.8-90.9-88.7-90.9h-75.8c-48.9,0-93,40.8-93,90.9v77.1h46.5V203.3z" class="st1"></path>
<path d="M563.9,45.3c8.8,5.5,16.5,12.6,22.7,20.9c8.1,10.8,12,19.3,15.6,34.7c9,37.8,7,99.7,7,99.7h23.5v-83.3
	C632.7,117.3,619.3,52.7,563.9,45.3z" class="st2"></path>
<path d="M526.3,681.7h-57.4c-36.5,0-66.3,45.9-66.3,102.4v60.5c61.2,23.1,128.6,23.2,189.9,0.3v-60.8
	C592.5,727.6,562.8,681.7,526.3,681.7z" class="st3"></path>
<path d="M412.6,292c0,50.6,74.9,79.8,98.6,79.8c24.6,0,98.6-28.3,98.6-79.8v-26.4h12.4c10.7,0,19.3-8.7,19.3-19.3
	c0-11.4-9.3-20.7-20.7-20.7h-36.2v-34.4c0-12.3-9.9-22.2-22.2-22.2H460.8c-12.3,0-22.2,10-22.2,22.2v34.5h-37.2
	c-11.4,0.1-20.6,9.3-20.6,20.7c0,10.7,8.6,19.3,19.3,19.3h12.4L412.6,292z M498.8,276.8c0.2,0.3,5.1,8.1,13.3,8.1
	c8.3,0,13.1-7.8,13.3-8.3l21.2,12.9c-1.3,2.1-12.8,20.1-34.5,20.1h-0.2c-21.6-0.1-33.1-18-34.3-20.1L498.8,276.8z" class="st0"></path>
<path d="M997.8,326.3C982.6,183.3,861.4,97.2,860,96.4l-0.7-0.5c-1.9-1.5-47.7-36.5-115.3-0.8
	c-7.3,19.6-1.9,41.6,13.7,55.6l1.8,1.6c5.2,4.7,12,7.3,19,7.3h0.2c52-0.3,64.9-28.5,65-28.9l23,9.3c-0.4,1-6.2,14.6-23.3,26.5
	l24.3,30.1l0.3,3.9c6.7,97,40.7,108.6,51,109.9c15.7,2,30.3,9.1,41.6,20.3L943,348.1c-7.3-7.3-16.8-11.9-27.1-13.2
	c-7.3-1-14.3-3.4-20.7-7.2l-14.2,5.9c-11.8,5.1-24.7,7.2-37.6,6.2c-23-2.1-53.7,6.4-69.4,57.4l-23.7-7.3c2.4-8.1,5.5-15.9,9.3-23.4
	c-46.5,0.3-72.3,17.2-85.9,32.2c-17.4,19.3-42.1,30.4-68,30.7h-2.8v-24.8h2.8c8.5,0,16.9-1.8,24.8-5.1
	c-14.4-6.3-28.6-17.4-36.1-35.5c-27.9,21.5-63.5,32.7-83.3,32.7c-19.8,0-55.1-11.1-82.9-32.3c-7.5,17.9-21.7,28.9-35.9,35.1
	c8.2,3.7,17.1,5.6,26.1,5.6h2.8v24.8h-2.8c-26-0.2-50.7-11.4-68-30.7c-13.7-15-39.4-31.9-85.9-32.2c3.7,7.6,6.9,15.4,9.3,23.5
	l-23.7,7.3c-15.7-51-46.4-59.4-69.4-57.4c-12.8,1-25.7-1.1-37.6-6.2l-14.3-5.9c-6.3,3.8-13.4,6.2-20.7,7.2
	c-10.2,1.2-19.8,5.8-27.1,13.1L63.7,331c11.2-11.2,25.9-18.3,41.6-20.2c10.3-1.3,44.2-12.9,51-109.9l0.3-3.9l24.3-30.1
	c-17.1-11.9-22.9-25.4-23.3-26.3l11.5-4.8l11.4-4.9c0.5,1.2,13.3,28.7,65.1,28.9c7.1,0.1,13.9-2.6,19.2-7.3l1.8-1.5
	c15.6-14,21-36,13.7-55.6c-67.6-35.6-113.4-0.7-115.3,0.9l-0.7,0.5C163,97.7,41.7,183.7,26.6,326.7c-0.3,2.9-0.8,6-1.4,9.3
	c-2,10.7,6.9,19.3,24.9,24.2l6.5,1.8l2.1,6.4c0.3,0.9,31.8,96,101.8,131.5c30.8,15.6,65,17.4,101.7,5.3l7.7,23.6
	c-8.9,2.9-17.9,5.2-27.1,6.8c-3.1,35.4,12.8,62,27.3,78.5c29.8,34,50.8,71.7,62.3,112.1c7.3,25.7,11.8,67.6,13.4,84.2
	c10.5,5.1,21.2,9.6,32,13.7v-47.6c0-65.9,45.1-119.6,100.6-119.6H544c55.5,0,100.6,53.7,100.6,119.6v48c11.2-4.2,22.3-8.9,33.1-14.1
	c0.1-35.8,8-63,13.3-81.5l0.9-3.1c11.6-40.4,32.5-78.1,62.3-112.1c10-11.4,22.7-30.1,26.5-54.6c1.2-7.9,1.5-16,0.8-24
	c-9.2-1.6-18.3-3.9-27.1-6.8l7.8-23.5c36.7,12.1,71,10.3,101.8-5.4c70-35.6,101.3-130.4,101.7-131.4l2.1-6.4l6.5-1.8
	c18-4.9,26.9-13.5,24.9-24.2C998.4,332.2,998,329.2,997.8,326.3L997.8,326.3z M193.5,468.3c-15.4,0.1-30.6-3.8-44-11.4
	c-41-23.3-54.1-73.9-54.6-76l12-3l12-3c0.1,0.4,11.2,42.6,42.9,60.6c16.4,9.3,36,10.6,58.4,3.9l7.1,23.8
	C216.4,466.4,205,468.2,193.5,468.3z M628.4,545.1c8.8,0,15.9,7.1,15.9,15.9c0,8.8-7.1,15.9-15.9,15.9c-8.8,0-15.9-7.1-15.9-15.9
	c0,0,0,0,0,0C612.5,552.3,619.6,545.1,628.4,545.1z M402.3,545.1c8.8,0,15.9,7.1,16,15.9s-7.1,15.9-15.9,16c-8.8,0-15.9-7.1-16-15.9
	c0,0,0,0,0,0C386.4,552.3,393.5,545.1,402.3,545.1z M757.4,483.4c-15,2.4-27.9,12.1-34.5,25.9l-38.2,84.2c-8.6,18.8-27.3,31-48,31
	h-59.3c-22.6,0-56.8-14.2-66.1-36.9c-9,23.1-42.4,37.4-64.4,37.4h-59.3c-20.7,0-39.5-12.2-48-31l-38.1-84.2
	c-6.5-13.7-19.4-23.4-34.4-25.9c-10.1-1.8-19.6-5.8-27.9-11.7l15.6-19.3c5.1,3.3,10.8,5.6,16.7,6.7c23.1,3.9,42.8,18.8,52.6,40
	l38.3,84.2c4.6,10,14.5,16.4,25.5,16.4H447c15.6,0,39.9-12.1,41.7-23.4l10.3-61.9l11.7,1.9l12.8-2.1l10.3,61.9
	c1.9,11.1,27.2,23.1,43.6,23.1h59.3c11,0,20.9-6.4,25.5-16.4l38.3-84.2c9.9-21.2,29.6-36.1,52.7-40c6-1.1,11.7-3.4,16.7-6.7
	l15.5,19.4C777,477.7,767.5,481.7,757.4,483.4L757.4,483.4z M872.9,457.4c-13.4,7.6-28.6,11.6-44,11.5c-11.5-0.1-22.9-1.9-33.9-5.3
	l7.1-23.8c22.3,6.7,42,5.4,58.4-3.9c31.8-18,42.8-60.2,42.9-60.6l24,6C927,383.5,914,434.1,872.9,457.4z" class="st0"></path>
<path d="M808.4,625.3c-22.7,25.6-40.8,54.8-53.6,86.5l23,9.2c11.7-29,28.4-55.9,49.2-79.3
	c12.2-13.9,27.7-36.8,32.4-67.1l-24.5-3.8C831.2,595.3,818.4,613.9,808.4,625.3L808.4,625.3z M745.2,740.5
	c-4.9,16.8-11.5,39.8-13,69.8l24.8,1.2c1.4-27.1,7.3-47.7,12-64.2l0.9-3.2l-23.8-6.8L745.2,740.5z" class="st4"></path>
<path d="M161.9,435.3c-31.8-18-42.8-60.2-42.9-60.6l-12,3l-12,3c0.5,2.1,13.6,52.7,54.6,76c13.4,7.6,28.6,11.6,44,11.5
	c11.5-0.1,22.9-1.8,33.9-5.2l-7.1-23.7C198,445.9,178.3,444.6,161.9,435.3L161.9,435.3z M860.5,435.9c-16.4,9.3-36,10.6-58.4,3.9
	l-7.1,23.8c11,3.4,22.4,5.2,33.9,5.3c15.4,0.1,30.6-3.8,44-11.5c41-23.3,54.1-73.9,54.6-76l-24.1-6
	C903.4,375.7,892.4,417.9,860.5,435.9L860.5,435.9z" class="st3"></path>
<path d="M1022.3,323.7c-8.5-80.9-48.3-143.8-80.2-182.4c-33.1-40-64.1-62.3-67.7-64.9c-5.7-4.5-64.1-46.8-146.2-0.9
	l-3.5,1.9l-1.7,3.6c-14,30.2-6.6,66,18.1,88.2l1.8,1.6c9.8,8.7,22.4,13.6,35.5,13.6h0.3c14.2,0.1,28.3-2.1,41.8-6.5l22.9,28.3
	c4.1,53.4,17,84.7,31.3,103.3l-3.3,1.4c-8.2,3.5-17.1,5-26,4.3c-26.2-2.5-52,7.5-69.5,27.1c-65-4.1-101,18.6-119.9,39.1
	c-10.9-1.7-36.6-8.5-41.3-36.5c12-14.6,20-32.2,20-52.6v-3.5c18.8-5.5,31.7-22.8,31.7-42.3c0-10.1-3.4-19.9-9.7-27.9v-82.3
	c0-59.6-49.6-108.2-110.5-108.2h-73.2c-61,0-110.6,48.5-110.6,108.2v87c-4.2,7-6.4,15-6.4,23.2c0,19.6,12.9,36.8,31.7,42.3v3.4
	c0,20.7,8.1,38.4,20.4,53.2c-4.9,27-29.2,34.1-40.6,35.9c-19-20.2-55-42.5-119.4-38.5c-17.6-19.5-43.4-29.5-69.5-27
	c-8.9,0.7-17.8-0.8-26-4.3l-3.3-1.4c14.3-18.4,27.1-49.8,31.4-103.3l22.9-28.3c13.5,4.4,27.6,6.6,41.8,6.5c13.2,0,26-4.8,35.8-13.6
	l1.8-1.6c24.8-22.2,32.1-58,18.1-88.2l-1.7-3.6l-3.5-2c-82.1-45.9-140.5-3.6-146.2,0.9c-3.7,2.6-34.6,25-67.6,65
	C50.2,180.3,10.4,243.3,1.9,324.1c-0.2,2.3-0.6,4.8-1.1,7.5c-3.3,17.7,5,39.7,36.5,50.6c8.6,23.3,42.9,104.7,111.8,139.7
	c20.5,10.6,43.3,16.1,66.4,16h2.2c-2.2,41.7,16.5,73,33.7,92.6c27.4,31.2,46.6,65.7,57.1,102.5c8.4,29.5,13.1,85.8,13.2,86.4
	l0.6,6.9l6.2,3.1c55.7,28.2,117.1,43.2,179.5,43.8h3.7c64-0.1,127.2-15.3,184.2-44.4l7-3.6l-0.2-7.8c-1-35.8,6.6-62.5,12.2-81.9
	l0.9-3.2c10.5-36.8,29.8-71.3,57.1-102.5c12.2-13.9,27.7-36.8,32.4-67.1c1.3-8.4,1.7-17,1.3-25.5h2.2c23.1,0,45.9-5.5,66.4-16
	c68.9-35,103.3-116.4,111.8-139.7c31.5-10.9,39.7-32.9,36.5-50.6C1022.9,328.4,1022.6,325.9,1022.3,323.7L1022.3,323.7z
	 M387.3,136.1c0-46,38.5-83.4,85.8-83.4h73.2c47.3,0,85.7,37.4,85.7,83.4v64.5h-22.5v-9.3c0-25.9-21-47-47-47H460.8
	c-25.9,0-47,21.1-47,47v9.3h-26.6L387.3,136.1z M400.2,265.6c-10.7,0-19.3-8.7-19.3-19.3c0-11.4,9.2-20.6,20.6-20.7h37.2v-34.4
	c0-12.3,9.9-22.2,22.2-22.2h101.7c12.3,0,22.2,10,22.2,22.2v34.5H621c11.4,0,20.7,9.3,20.7,20.7c0,10.7-8.7,19.3-19.3,19.3h-12.4
	v26.4c0,51.5-74.1,79.8-98.6,79.8c-23.8,0-98.6-29.2-98.6-79.8v-26.5L400.2,265.6z M619.8,832.7c-70.9,21.2-146.4,21.1-217.2-0.2
	v-56c0-52.3,34-94.8,75.8-94.8H544c41.8,0,75.8,42.5,75.8,94.8L619.8,832.7z M974.1,359.7l-6.5,1.8l-2.1,6.4
	c-0.3,1-31.6,95.8-101.7,131.4c-30.8,15.7-65.1,17.5-101.8,5.4l-7.7,23.5c8.9,3,17.9,5.2,27.1,6.8c0.7,8,0.5,16.1-0.8,24
	c-3.8,24.4-16.5,43.2-26.5,54.6c-29.8,34-50.8,71.6-62.3,112.1l-0.9,3.1c-5.3,18.5-13.2,45.7-13.3,81.5c-10.8,5.2-21.8,10-33.1,14.1
	v-47.9c0-65.9-45.1-119.6-100.6-119.6h-65.7c-55.4,0-100.6,53.7-100.6,119.6v47.7c-10.9-4.1-21.6-8.6-32-13.7
	c-1.6-16.5-6.1-58.6-13.4-84.2c-11.6-40.4-32.5-78.1-62.3-112.1c-14.5-16.5-30.4-43.2-27.3-78.5c9.2-1.6,18.3-3.9,27.1-6.8
	l-7.8-23.6c-36.7,12.1-70.9,10.3-101.7-5.3C90.5,464.4,59,369.4,58.7,368.4l-2.1-6.4l-6.5-1.8c-18-4.9-26.9-13.5-24.9-24.2
	c0.6-3.3,1.1-6.4,1.4-9.3C41.7,183.8,163,97.8,164.2,96.9l0.7-0.5c1.9-1.5,47.8-36.5,115.3-0.9c7.3,19.6,1.9,41.6-13.7,55.6
	l-1.8,1.5c-5.2,4.8-12.1,7.4-19.2,7.3c-51.7-0.3-64.6-27.8-65.1-28.9l-11.4,4.8l-11.5,4.8c0.4,1,6.2,14.6,23.3,26.5l-24.3,30
	l-0.3,3.9c-6.7,97-40.7,108.6-51,109.9c-15.7,1.9-30.4,9-41.6,20.2l17.5,17.5c7.3-7.3,16.9-11.9,27.1-13.1c7.3-1,14.3-3.4,20.7-7.2
	l14.3,5.9c11.8,5.1,24.7,7.2,37.6,6.2c23-2.1,53.7,6.4,69.4,57.4l23.7-7.3c-2.4-8.1-5.6-15.9-9.3-23.5c46.5,0.3,72.3,17.2,85.9,32.2
	c17.4,19.3,42.1,30.4,68,30.7h2.8v-24.8h-2.8c-9,0-17.9-1.9-26.1-5.6c14.3-6.2,28.4-17.3,35.9-35.1c27.8,21.3,63.2,32.3,82.9,32.3
	s55.4-11.2,83.3-32.7c7.5,18.1,21.7,29.2,36.1,35.5c-7.9,3.3-16.3,5-24.8,5.1H603v24.8h2.8c26-0.2,50.7-11.4,68-30.7
	c13.7-15,39.4-31.8,85.9-32.2c-3.7,7.5-6.8,15.4-9.3,23.4l23.7,7.3c15.7-51,46.4-59.4,69.4-57.4c12.8,1,25.7-1.1,37.6-6.2l14.2-5.9
	c6.3,3.8,13.4,6.2,20.7,7.2c10.2,1.2,19.8,5.8,27.1,13.1l17.5-17.5c-11.2-11.2-25.9-18.3-41.6-20.2c-10.3-1.3-44.2-12.9-51-109.9
	l-0.3-3.9l-24.3-30.1c17.1-11.9,22.9-25.5,23.3-26.5l-23-9.3c-0.1,0.3-13,28.5-65,28.9h-0.2c-7,0-13.8-2.6-19-7.3l-1.8-1.6
	c-15.6-13.9-21-36-13.7-55.6c67.6-35.6,113.4-0.7,115.3,0.8l0.7,0.5c1.3,0.7,122.5,86.8,137.7,229.7c0.3,2.9,0.8,6,1.4,9.3
	C1001,346.3,992.1,354.9,974.1,359.7L974.1,359.7z" class="st4"></path>
<path d="M753,459c-23.1,3.9-42.8,18.8-52.7,40l-38.3,84.2c-4.5,10-14.5,16.4-25.5,16.4h-59.3
	c-16.4,0-41.7-11.9-43.6-23.1l-10.3-61.9l-12.8,2.1l-11.7-1.9l-10.3,61.9c-1.9,11.3-26.1,23.4-41.7,23.4h-59.3
	c-11,0-20.9-6.4-25.5-16.4l-38.2-84.2c-9.9-21.2-29.6-36.2-52.6-40c-6-1.1-11.7-3.4-16.7-6.7l-15.6,19.3c8.3,5.9,17.8,9.9,27.9,11.7
	c15.1,2.4,28,12.1,34.5,25.9l38.2,84.3c8.6,18.8,27.3,31,48,31h59.3c21.9,0,55.4-14.4,64.4-37.4c9.3,22.7,43.4,36.9,66.1,36.9h59.3
	c20.7,0,39.5-12.2,48-31l38.1-84.3c6.5-13.7,19.4-23.4,34.4-25.9c10-1.8,19.6-5.8,27.9-11.7l-15.5-19.4
	C764.7,455.6,759,457.9,753,459z" class="st4"></path>
<path d="M402.3,577c8.8,0,15.9-7.1,16-15.9c0-8.8-7.1-15.9-15.9-16c-8.8,0-15.9,7.1-16,15.9c0,0,0,0,0,0
	C386.4,569.8,393.5,577,402.3,577z M628.4,577c8.8,0,15.9-7.1,15.9-15.9s-7.1-15.9-15.9-15.9s-15.9,7.1-15.9,15.9c0,0,0,0,0,0
	C612.5,569.9,619.6,577,628.4,577C628.4,577,628.4,577,628.4,577z M511.9,309.8h0.2c21.7,0,33.3-18,34.5-20.1l-21.2-12.9
	c-0.2,0.4-5.1,8.3-13.3,8.3c-8.2,0-13.1-7.8-13.3-8.1l-21.2,12.9C478.8,291.7,490.3,309.7,511.9,309.8z" class="st4"></path>
</svg>
